<?xml version="1.0" encoding="UTF-8"?>
<svg id="Layer_1" data-name="Layer 1" xmlns="http://www.w3.org/2000/svg" xmlns:xlink="http://www.w3.org/1999/xlink" viewBox="0 0 872.39 344.04">
  <defs>
    <style>
      .cls-1 {
        fill: #231f20;
      }

      .cls-2 {
        fill: url(#linear-gradient);
      }
    </style>
    <linearGradient id="linear-gradient" x1="0" y1="172.02" x2="313.18" y2="172.02" gradientUnits="userSpaceOnUse">
      <stop offset=".21" stop-color="#6653a3"/>
      <stop offset="1" stop-color="#ef6950"/>
    </linearGradient>
  </defs>
  <g>
    <g>
      <path class="cls-1" d="M454.05,56.9l18.86,22.64,18.86-22.64h9.9v57.39h-11.09v-40.3h-.33l-16.6,20.21h-1.56l-16.6-20.21h-.33v40.3h-11.09v-57.39h9.98Z"/>
      <path class="cls-1" d="M532.07,75.18c4,0,7.63.84,10.89,2.51,3.26,1.67,5.78,4.01,7.56,7.02,1.78,3.01,2.67,6.42,2.67,10.23s-.86,7.45-2.57,10.43c-1.71,2.99-4.23,5.34-7.56,7.07-3.33,1.73-6.99,2.59-10.99,2.59s-7.68-.86-10.97-2.59c-3.29-1.73-5.79-4.08-7.5-7.07-1.71-2.98-2.57-6.46-2.57-10.43s.9-7.29,2.71-10.29c1.81-3,4.33-5.33,7.56-6.98,3.23-1.66,6.82-2.49,10.76-2.49ZM521.63,94.94c0,3.83.94,6.9,2.81,9.18,1.88,2.29,4.39,3.43,7.54,3.43s5.87-1.1,7.76-3.29c1.89-2.19,2.83-5.33,2.83-9.41s-.95-6.89-2.86-9.02c-1.9-2.12-4.48-3.18-7.74-3.18-3.07,0-5.56,1.12-7.48,3.37-1.92,2.25-2.88,5.22-2.88,8.92Z"/>
      <path class="cls-1" d="M571.38,56.9v21.49c2.99-2.14,6.37-3.2,10.15-3.2,3.37,0,6.43.83,9.18,2.49,2.75,1.66,4.89,3.98,6.41,6.98,1.52,3,2.28,6.35,2.28,10.04,0,6.3-1.88,11.26-5.63,14.89-3.75,3.63-8.89,5.44-15.41,5.44-5.86,0-11.56-1.08-17.09-3.25v-54.89h10.11ZM571.38,106.28c2.16.74,4.68,1.11,7.56,1.11,3.09,0,5.55-1.13,7.37-3.39,1.82-2.26,2.73-5.39,2.73-9.39,0-3.62-.92-6.5-2.75-8.65-1.83-2.15-4.26-3.23-7.27-3.23-1.4,0-2.68.26-3.86.78-1.18.52-2.44,1.33-3.78,2.42v20.34Z"/>
      <path class="cls-1" d="M612.84,58.17c1.56,0,2.9.56,4.03,1.68,1.12,1.12,1.68,2.47,1.68,4.03s-.55,2.84-1.66,4.01c-1.11,1.16-2.46,1.75-4.05,1.75s-2.87-.58-4.01-1.75c-1.14-1.16-1.7-2.5-1.7-4.01,0-1.59.58-2.94,1.73-4.05,1.15-1.11,2.48-1.66,3.98-1.66ZM617.89,75.92v38.37h-10.11v-38.37h10.11Z"/>
      <path class="cls-1" d="M638.76,56.9v57.39h-10.11v-57.39h10.11Z"/>
      <path class="cls-1" d="M666.37,75.18c5.64,0,10.11,1.81,13.39,5.42,3.29,3.62,4.93,8.61,4.93,14.99v1.52h-27.15c.41,3.42,1.69,6.06,3.84,7.91,2.15,1.85,5.1,2.77,8.85,2.77,2.41,0,4.73-.42,6.96-1.25,2.23-.84,4.54-2.1,6.92-3.8v7.52c-4.49,3.18-9.94,4.77-16.35,4.77-6.05,0-11-1.82-14.83-5.46-3.83-3.64-5.75-8.49-5.75-14.54s1.77-10.6,5.32-14.3c3.55-3.7,8.17-5.55,13.87-5.55ZM675.2,91c-.27-2.79-1.12-4.98-2.55-6.55-1.42-1.58-3.38-2.36-5.87-2.36s-4.6.75-6.14,2.26c-1.55,1.51-2.53,3.73-2.94,6.66h17.5Z"/>
    </g>
    <g>
      <path class="cls-1" d="M468.1,142.14c5.97,0,11.28,1.22,15.94,3.66,4.66,2.44,8.27,5.86,10.85,10.27,2.57,4.41,3.86,9.37,3.86,14.87s-1.29,10.59-3.88,14.93c-2.59,4.34-6.26,7.7-11.03,10.09-4.77,2.38-10.23,3.57-16.39,3.57h-23.38v-57.39h24.03ZM466.95,190.87c6.14,0,11.06-1.84,14.77-5.53,3.71-3.68,5.57-8.51,5.57-14.48s-1.87-11.08-5.61-14.67c-3.74-3.59-8.77-5.38-15.1-5.38h-11.42v40.06h11.79Z"/>
      <path class="cls-1" d="M525,160.43c5.64,0,10.11,1.81,13.39,5.42,3.29,3.62,4.93,8.61,4.93,14.99v1.52h-27.15c.41,3.42,1.69,6.06,3.84,7.91,2.15,1.85,5.1,2.77,8.85,2.77,2.41,0,4.73-.42,6.96-1.25,2.23-.84,4.54-2.1,6.92-3.8v7.52c-4.49,3.18-9.94,4.77-16.35,4.77-6.05,0-11-1.82-14.83-5.46-3.83-3.64-5.75-8.49-5.75-14.54s1.77-10.6,5.32-14.3c3.55-3.7,8.17-5.55,13.87-5.55ZM533.83,176.24c-.27-2.79-1.12-4.98-2.55-6.55-1.42-1.58-3.38-2.36-5.87-2.36s-4.6.75-6.14,2.26c-1.55,1.51-2.53,3.73-2.94,6.66h17.5Z"/>
      <path class="cls-1" d="M557.21,161.16l9.2,22.23,9-22.23h10.76l-17.34,39.11h-4.89l-17.58-39.11h10.85Z"/>
      <path class="cls-1" d="M608.56,160.43c5.64,0,10.11,1.81,13.39,5.42,3.29,3.62,4.93,8.61,4.93,14.99v1.52h-27.15c.41,3.42,1.69,6.06,3.84,7.91,2.15,1.85,5.1,2.77,8.85,2.77,2.41,0,4.73-.42,6.96-1.25s4.54-2.1,6.92-3.8v7.52c-4.49,3.18-9.94,4.77-16.35,4.77-6.05,0-11-1.82-14.83-5.46-3.83-3.64-5.75-8.49-5.75-14.54s1.77-10.6,5.32-14.3c3.55-3.7,8.17-5.55,13.87-5.55ZM617.4,176.24c-.27-2.79-1.12-4.98-2.55-6.55-1.42-1.58-3.38-2.36-5.87-2.36s-4.6.75-6.14,2.26c-1.55,1.51-2.53,3.73-2.94,6.66h17.5Z"/>
      <path class="cls-1" d="M645.25,142.14v57.39h-10.11v-57.39h10.11Z"/>
      <path class="cls-1" d="M674.7,160.43c4,0,7.63.84,10.89,2.51,3.26,1.67,5.78,4.01,7.56,7.02,1.78,3.01,2.67,6.42,2.67,10.23s-.86,7.45-2.57,10.43c-1.71,2.99-4.23,5.34-7.56,7.07-3.33,1.73-6.99,2.59-10.99,2.59s-7.68-.86-10.97-2.59c-3.29-1.73-5.79-4.08-7.5-7.07-1.71-2.98-2.57-6.46-2.57-10.43s.9-7.29,2.71-10.29c1.81-3,4.33-5.33,7.56-6.98,3.23-1.66,6.82-2.49,10.76-2.49ZM664.27,180.19c0,3.83.94,6.9,2.81,9.18,1.88,2.29,4.39,3.43,7.54,3.43s5.87-1.1,7.76-3.29c1.89-2.19,2.83-5.33,2.83-9.41s-.95-6.89-2.86-9.02c-1.9-2.12-4.48-3.18-7.74-3.18-3.07,0-5.56,1.12-7.48,3.37-1.92,2.25-2.88,5.22-2.88,8.92Z"/>
      <path class="cls-1" d="M723.67,160.43c5.48,0,9.89,1.84,13.25,5.5,3.35,3.67,5.03,8.45,5.03,14.34,0,3.86-.79,7.31-2.36,10.35-1.58,3.04-3.81,5.41-6.72,7.11-2.9,1.7-6.19,2.55-9.86,2.55-2.99,0-5.98-.75-9-2.26v20.87h-10.11v-57.72h10.02v2.47c3.04-2.14,6.29-3.2,9.74-3.2ZM714.02,190.62c2.52,1.45,4.87,2.18,7.07,2.18,3.18,0,5.72-1.14,7.64-3.41,1.92-2.27,2.88-5.2,2.88-8.79,0-3.92-.86-6.98-2.57-9.2-1.71-2.22-4.14-3.33-7.29-3.33-1.18,0-2.31.2-3.41.6-1.1.4-2.53,1.24-4.31,2.53v19.43Z"/>
      <path class="cls-1" d="M767.18,160.43c5.64,0,10.11,1.81,13.39,5.42,3.29,3.62,4.93,8.61,4.93,14.99v1.52h-27.15c.41,3.42,1.69,6.06,3.84,7.91,2.15,1.85,5.1,2.77,8.85,2.77,2.41,0,4.73-.42,6.96-1.25,2.23-.84,4.54-2.1,6.92-3.8v7.52c-4.49,3.18-9.94,4.77-16.35,4.77-6.05,0-11-1.82-14.83-5.46-3.83-3.64-5.75-8.49-5.75-14.54s1.77-10.6,5.32-14.3c3.55-3.7,8.17-5.55,13.87-5.55ZM776.01,176.24c-.27-2.79-1.12-4.98-2.55-6.55-1.42-1.58-3.38-2.36-5.87-2.36s-4.6.75-6.14,2.26c-1.55,1.51-2.53,3.73-2.94,6.66h17.5Z"/>
      <path class="cls-1" d="M815.37,160.43c1.34,0,2.66.3,3.96.9,1.3.6,2.81,1.62,4.54,3.04l-3.62,8.83c-2.93-2.19-5.29-3.29-7.07-3.29-1.56,0-3.1.58-4.62,1.75-1.52,1.16-2.74,2.7-3.66,4.62-.92,1.92-1.38,3.83-1.38,5.75v17.5h-10.11v-38.37h10.11v9.78h.16c1.83-3.7,3.68-6.37,5.55-8.03,1.86-1.66,3.9-2.49,6.12-2.49Z"/>
    </g>
    <g>
      <path class="cls-1" d="M474.18,227.86c3.26,0,6.45.37,9.57,1.11s6.49,2,10.11,3.78v10.43c-3.53-2.03-6.8-3.49-9.8-4.4-3-.9-6.13-1.36-9.39-1.36-4.08,0-7.76.84-11.05,2.53-3.29,1.68-5.84,4.06-7.66,7.13-1.82,3.07-2.73,6.48-2.73,10.23s.9,7.27,2.71,10.31c1.81,3.04,4.35,5.39,7.64,7.05,3.29,1.66,6.98,2.49,11.09,2.49,3.15,0,6.16-.45,9.02-1.36,2.86-.9,6.47-2.53,10.82-4.89v10.43c-3.72,1.95-7.15,3.33-10.27,4.15-3.12.82-6.77,1.23-10.93,1.23-6.05,0-11.46-1.2-16.23-3.61-4.77-2.41-8.51-5.88-11.24-10.41-2.73-4.53-4.09-9.5-4.09-14.89,0-5.78,1.4-10.97,4.21-15.57s6.67-8.15,11.59-10.64c4.92-2.49,10.46-3.74,16.62-3.74Z"/>
      <path class="cls-1" d="M522.82,246.88c4,0,7.63.84,10.89,2.51,3.26,1.67,5.78,4.01,7.56,7.02,1.78,3.01,2.67,6.42,2.67,10.23s-.86,7.45-2.57,10.43c-1.71,2.99-4.23,5.34-7.56,7.07-3.33,1.73-6.99,2.59-10.99,2.59s-7.68-.86-10.97-2.59c-3.29-1.73-5.79-4.08-7.5-7.07-1.71-2.98-2.57-6.46-2.57-10.43s.9-7.29,2.71-10.29c1.81-3,4.33-5.33,7.56-6.98,3.23-1.66,6.82-2.49,10.76-2.49ZM512.39,266.64c0,3.83.94,6.9,2.81,9.18,1.88,2.29,4.39,3.43,7.54,3.43s5.87-1.1,7.76-3.29,2.83-5.33,2.83-9.41-.95-6.89-2.86-9.02c-1.9-2.12-4.48-3.18-7.74-3.18-3.07,0-5.56,1.12-7.48,3.37-1.92,2.25-2.88,5.22-2.88,8.92Z"/>
      <path class="cls-1" d="M574.26,246.88c2.96,0,5.46.69,7.5,2.07,2.04,1.38,3.57,3.24,4.58,5.57,2.16-2.66,4.32-4.59,6.47-5.81,2.15-1.22,4.51-1.83,7.09-1.83,4.05,0,7.33,1.32,9.82,3.96,2.49,2.64,3.74,6.17,3.74,10.58v24.57h-10.11v-22.88c0-2.66-.57-4.75-1.7-6.29-1.14-1.53-2.79-2.3-4.95-2.3-3.1,0-6.07,1.99-8.92,5.96v25.51h-10.07v-23.05c0-2.63-.6-4.69-1.81-6.18-1.21-1.49-2.82-2.24-4.85-2.24-1.64,0-3.15.47-4.52,1.42-1.37.95-2.83,2.46-4.4,4.54v25.51h-10.11v-38.37h10.11v5.38c1.83-2.08,3.7-3.62,5.59-4.62,1.89-1,4.07-1.5,6.53-1.5Z"/>
      <path class="cls-1" d="M645.45,246.88c2.96,0,5.46.69,7.5,2.07,2.04,1.38,3.57,3.24,4.58,5.57,2.16-2.66,4.32-4.59,6.47-5.81,2.15-1.22,4.51-1.83,7.09-1.83,4.05,0,7.33,1.32,9.82,3.96,2.49,2.64,3.74,6.17,3.74,10.58v24.57h-10.11v-22.88c0-2.66-.57-4.75-1.7-6.29-1.14-1.53-2.79-2.3-4.95-2.3-3.1,0-6.07,1.99-8.92,5.96v25.51h-10.07v-23.05c0-2.63-.6-4.69-1.81-6.18-1.21-1.49-2.82-2.24-4.85-2.24-1.64,0-3.15.47-4.52,1.42-1.37.95-2.83,2.46-4.4,4.54v25.51h-10.11v-38.37h10.11v5.38c1.83-2.08,3.7-3.62,5.59-4.62,1.89-1,4.07-1.5,6.53-1.5Z"/>
      <path class="cls-1" d="M704.16,247.62v23.74c0,2.49.62,4.39,1.87,5.69,1.25,1.3,2.9,1.95,4.95,1.95,1.7,0,3.33-.52,4.89-1.56,1.56-1.04,2.82-2.51,3.78-4.4v-25.43h10.11v38.37h-10.11v-5.22c-3.64,3.97-7.59,5.96-11.83,5.96s-7.42-1.34-9.94-4.03c-2.52-2.68-3.78-6.19-3.78-10.52v-24.57h10.07Z"/>
      <path class="cls-1" d="M762.09,246.88c4.11,0,7.39,1.35,9.84,4.05,2.45,2.7,3.68,6.25,3.68,10.66v24.4h-10.07v-23.38c0-2.49-.6-4.46-1.79-5.92-1.19-1.45-2.81-2.18-4.87-2.18-1.56,0-3.03.46-4.4,1.38-1.37.92-2.88,2.44-4.52,4.58v25.51h-10.11v-38.37h10.11v5.38c1.86-2.19,3.77-3.76,5.73-4.7,1.96-.94,4.09-1.42,6.39-1.42Z"/>
      <path class="cls-1" d="M790.76,229.87c1.56,0,2.9.56,4.03,1.68,1.12,1.12,1.68,2.47,1.68,4.03s-.55,2.84-1.66,4.01c-1.11,1.16-2.46,1.75-4.05,1.75s-2.87-.58-4.01-1.75c-1.14-1.16-1.7-2.5-1.7-4.01,0-1.59.58-2.94,1.73-4.05,1.15-1.11,2.48-1.66,3.98-1.66ZM795.82,247.62v38.37h-10.11v-38.37h10.11Z"/>
      <path class="cls-1" d="M816.77,237.43h.82v10.19h13.15v7.64h-13.15v17.71c0,1.73.52,3.12,1.56,4.19,1.04,1.07,2.46,1.6,4.27,1.6,2.36,0,5.07-.85,8.13-2.55v8.09c-3.64,1.62-7.07,2.42-10.27,2.42-4.33,0-7.7-1.18-10.13-3.53s-3.64-5.55-3.64-9.57v-18.36h-6v-1.64l15.24-16.19Z"/>
      <path class="cls-1" d="M843.26,247.62l9.08,20.62,9.2-20.62h10.85l-26.5,57.72h-10.85l12.2-26.42-14.91-31.3h10.93Z"/>
    </g>
  </g>
  <g>
    <path class="cls-1" d="M386.01,57.54v53.52c0,11.59-9.39,20.98-20.98,20.98h0c-11.59,0-20.98-9.39-20.98-20.98v-53.52c0-10.62-9.3-15.58-15.58-15.58-2.63,0-5.14.71-7.65,2.17l-58.47,33.76-41.96-24.24L299.83,7.78c9.26-5.34,19.07-7.78,28.63-7.78,30.01,0,57.54,24,57.54,57.54Z"/>
    <path class="cls-1" d="M365.03,209.72c11.59,0,20.98,9.39,20.98,20.98v55.79c0,33.54-27.53,57.54-57.54,57.54-9.56,0-19.37-2.45-28.63-7.78l-71.32-41.18-35.52-20.5-41.96-24.24-16.25-9.38-33.23-19.19c-38.3-22.12-38.3-77.39,0-99.52l25.96-14.98,41.96,24.22-46.94,27.1c-6.74,3.89-7.74,10.07-7.74,13.41s1,9.52,7.74,13.41l33.23,19.19,37.23,21.5,41.96,24.22,14.54,8.39,71.32,41.18c2.52,1.46,5.02,2.17,7.65,2.17,6.28,0,15.58-4.96,15.58-15.58v-55.79c0-11.59,9.39-20.98,20.98-20.98h0Z"/>
    <path class="cls-2" d="M284.45,221.78l-24.8,14.31-41.96-24.22,45.78-26.43c6.74-3.89,7.74-10.07,7.74-13.41s-1-9.52-7.74-13.41l-30.96-17.87-39.51-22.82-41.96-24.22-12.25-7.09-73.59-42.48c-2.52-1.46-5.02-2.17-7.65-2.17-6.29,0-15.58,4.96-15.58,15.58v228.95c0,10.62,9.29,15.58,15.58,15.58,2.63,0,5.14-.71,7.65-2.17l59.63-34.42,41.96,24.22-80.61,46.55c-9.26,5.34-19.08,7.78-28.63,7.78-30.02,0-57.54-24-57.54-57.54V57.54C0,24,27.53.01,57.54,0c9.56,0,19.37,2.45,28.63,7.78l73.59,42.49,33.23,19.19,41.96,24.24,18.53,10.69,30.96,17.87c38.3,22.12,38.3,77.39,0,99.52Z"/>
  </g>
</svg>